<?xml version="1.0" encoding="UTF-8"?><svg id="b" xmlns="http://www.w3.org/2000/svg" viewBox="0 0 255.996002 150.731908"><defs><style>.d{opacity:.6;}.d,.e{fill:#00b37e;}.e{opacity:.75;}</style></defs><g id="c"><path class="d" d="M176.135956,107.268684c-.534973-1.284973-44.513977-88.432983-45.234009-89.633972-2.310974-5.549011-6.377014-10.419983-11.961975-13.69397-13.664001-8.007996-31.232971-3.424011-39.241028,10.23999-5.492981,9.372009-5.059998,20.580994.161987,29.281982.534973,1.284973,42.629028,84.697998,43.349976,85.899048.534973,1.285034,1.164001,2.534058,1.88501,3.734985,2.310974,5.54895,6.377014,10.420044,11.961975,13.69397,13.664001,8.009033,31.232971,3.42395,39.241028-10.23999,5.493042-9.37207,5.059021-20.581055-.162964-29.282043Z"/><path class="e" d="M125.348969,48.295662c4.812988-5.129028,7.767029-12.025024,7.767029-19.614014C133.115997,12.843636,120.277008.004646,104.438995.004646c-9.73999,0-18.340027,4.859985-23.52301,12.281982-.945984,1.007996-72.355011,89.013-73.148987,90.150024-4.812988,5.129028-7.766998,12.025024-7.766998,19.613953,0,15.838013,12.838989,28.677002,28.677002,28.677002,9.73999,0,18.339996-4.859985,23.52301-12.281982.945953-1.008911,72.35495-89.013977,73.148956-90.149963Z"/><path class="e" d="M248.228973,48.295662c4.812988-5.129028,7.767029-12.025024,7.767029-19.614014C255.996002,12.843636,243.157013.004646,227.319.004646c-9.73999,0-18.338989,4.859985-23.52301,12.281982-.945984,1.007996-72.35498,89.013-73.148987,90.150024-4.812988,5.129028-7.767029,12.025024-7.767029,19.613953,0,15.838013,12.838989,28.677002,28.677002,28.677002,9.73999,0,18.340027-4.859985,23.52301-12.281982.945984-1.008911,72.35498-89.013977,73.148987-90.149963Z"/></g></svg>